<svg xmlns="http://www.w3.org/2000/svg" width="170.667" height="170.667"><path d="M25.952 164.132c-2.307-1.407-5.488-5.292-7.158-8.743-2.754-5.689-2.953-7.58-2.365-22.464.535-13.518 1.334-18.308 4.75-28.472 2.257-6.721 6.009-16.021 8.336-20.667 2.326-4.645 6.208-11.224 8.625-14.619 4.395-6.173 4.395-6.173.846-7.768-1.952-.877-6.304-3.35-9.67-5.496-3.366-2.146-6.819-5.434-7.673-7.308-1.13-2.48-1.158-4.143-.105-6.11.795-1.488 3.52-3.571 6.056-4.63 2.536-1.06 10.138-2.284 16.893-2.722 7.075-.458 14.387-.208 17.245.588 4.739 1.32 5.372 1.087 14-5.167 4.971-3.602 14.138-10.06 20.371-14.35 6.233-4.29 13.254-8.79 15.6-9.999 2.347-1.21 6.676-2.199 9.62-2.199 3.95 0 5.72.685 6.75 2.61 1.099 2.054.422 4.971-3.173 13.668-2.514 6.08-5.26 14.873-6.103 19.538-.842 4.665-1.257 9.199-.92 10.075.336.876 4.558 3.902 9.382 6.723 4.824 2.821 11.956 7.968 15.848 11.436 3.892 3.47 8.196 8.387 9.564 10.928 1.583 2.94 2.181 5.845 1.644 7.986-.522 2.082-2.433 4.024-5.01 5.09-3.312 1.373-6.504 1.413-15.598.196-6.289-.842-11.608-1.356-11.82-1.144-.213.213.738 3.351 2.112 6.974 1.375 3.623 3.541 12.82 4.813 20.438 1.506 9.016 2.044 17.073 1.54 23.082-.426 5.077-1.856 11.436-3.178 14.131-1.322 2.696-4.443 6.259-6.935 7.919-2.492 1.66-6.092 3.011-8 3.004-1.908-.007-6.583-1.463-10.39-3.235-4.485-2.088-8.348-5.193-10.977-8.823-2.232-3.08-5.386-9.724-7.009-14.765-1.623-5.04-3.323-9.164-3.778-9.164-.454 0-3.87 4.35-7.591 9.667s-9.032 11.991-11.803 14.832c-2.77 2.841-8.087 6.585-11.813 8.32-3.948 1.839-9.279 3.158-12.775 3.163-3.559.005-7.689-1.022-10.151-2.523zm23.346-4.722c3.541-1.795 8.816-6.145 11.72-9.667 2.906-3.522 8.14-10.453 11.634-15.403 3.494-4.95 7.15-9 8.126-9 1.01 0 3.05 3.88 4.733 9 1.628 4.95 4.022 11.1 5.32 13.666 1.299 2.567 4.066 6.279 6.15 8.249 2.084 1.97 5.478 4.22 7.542 5 2.065.78 5.681 1.418 8.037 1.418 2.356 0 5.608-.928 7.227-2.062 1.746-1.223 3.839-5.14 5.142-9.62 1.664-5.727 2.017-10.64 1.454-20.272-.408-6.992-1.707-16.789-2.887-21.771-1.18-4.982-3.593-12.332-5.362-16.333-1.77-4.001-2.715-7.275-2.1-7.275.614 0 5.637.935 11.16 2.077 5.525 1.142 12.94 1.892 16.477 1.667 5.983-.382 6.463-.679 6.87-4.25.368-3.218-.929-5.176-8.005-12.08-4.644-4.531-12.863-10.864-18.265-14.073-9.82-5.835-9.82-5.835-9.203-15.255.443-6.77 2.028-12.896 5.635-21.778 3.937-9.697 4.682-12.763 3.46-14.236-1.221-1.472-2.474-1.573-5.809-.47-2.338.774-10.85 5.863-18.918 11.31-8.066 5.446-17.966 12.27-22 15.163-7.333 5.26-7.333 5.26-26.666 5.689-12.621.28-20.607 1.048-23 2.213-2.017.981-3.667 2.857-3.667 4.169 0 1.312 1.95 3.848 4.333 5.637 2.384 1.788 7.634 4.891 11.667 6.895 4.033 2.003 7.568 3.855 7.854 4.114.286.259-1.649 2.872-4.3 5.806s-7.021 9.7-9.712 15.035c-2.69 5.335-6.619 14.8-8.73 21.033-2.11 6.234-4.5 16.734-5.31 23.334-1.126 9.18-1.085 13.86.176 19.915 1.134 5.447 2.818 9.086 5.399 11.667 3.134 3.134 4.872 3.751 10.565 3.751 4.585 0 8.919-1.067 13.253-3.263zm14.328-58.033c-2.095-.67-4.945-2.244-6.333-3.5-1.388-1.256-2.51-3.84-2.494-5.744.016-1.903 1.181-5.997 2.59-9.099 1.477-3.256 4.423-6.776 6.97-8.328 2.426-1.48 5.449-2.692 6.717-2.695 1.269-.002 4.569.92 7.333 2.05 2.765 1.13 6.21 3.668 7.654 5.64 1.755 2.396 2.64 5.77 2.666 10.18.037 6.007-.335 6.819-4.164 9.076-2.312 1.363-7.112 2.738-10.667 3.057-3.554.318-8.176.031-10.272-.637z" style="fill:#452c7a;stroke-width:1.33333"/><path d="M32.897 162.36c-3.14-.305-4.925-1.195-7.304-3.642-5.14-5.283-7.265-15.867-5.81-28.932a125.642 125.642 0 0 1 8.174-32.658c5.587-14.021 10.08-22.202 16.288-29.659 2.48-2.978 3.947-4.934 3.947-5.259 0-.094-2.505-1.473-5.567-3.066-9.66-5.024-13.999-7.741-16.235-10.167-1.504-1.63-2.128-2.662-2.128-3.517 0-.873 2.02-3.24 3.352-3.93 2.319-1.199 10.242-1.895 28.222-2.48 14.219-.463 14.794-.619 22.6-6.14 17.505-12.382 33.12-22.585 38.47-25.139 2.621-1.25 5.367-1.607 6.526-.848 1.76 1.154 1.432 3.413-1.67 11.485-4.996 12.994-6.19 17.438-6.817 25.378-.653 8.254-.08 9.389 6.827 13.546 8.428 5.072 14.827 9.995 21.579 16.603 6.54 6.4 7.615 8.253 6.87 11.84-.579 2.788-1.094 2.968-8.47 2.952-6.433-.014-7.727-.169-18.063-2.168-8.513-1.647-8.163-1.644-7.87-.062.126.685 1.176 3.639 2.334 6.564 3.99 10.08 5.814 17.188 7.129 27.766 1.523 12.26 1.479 22.356-.126 28.68-.904 3.565-2.924 8.135-4.329 9.79-2.4 2.831-7.532 3.812-13.44 2.57-4.656-.98-9.43-4.249-13.053-8.936-3.273-4.234-4.787-7.441-8.417-17.821-1.742-4.982-3.394-8.492-4.443-9.439-.641-.579-.752-.586-1.497-.098-1.364.893-4.446 4.604-8.95 10.772-6.046 8.282-10.788 14.23-13.072 16.4-5.757 5.465-12.11 8.808-17.917 9.425-3.847.41-4.665.431-7.14.19zm46.038-61.12c3.016-.8 6.313-2.317 7.854-3.614 1.63-1.371 1.951-2.546 1.951-7.144 0-6.546-1.116-9.727-4.486-12.786-3.411-3.096-10.661-6.07-13.78-5.651-1.696.227-5.262 1.886-7.351 3.42-3.04 2.231-5.805 6.61-7.434 11.777-1.416 4.492-1.147 7.386.943 10.121 1.085 1.42 5.353 3.771 7.884 4.344 3.138.71 10.936.458 14.42-.467z" style="fill:#fff;stroke-width:0"/></svg>