<?xml version="1.0" encoding="UTF-8" standalone="no"?>
<svg
   width="32"
   height="32"
   viewBox="0 0 24 24"
   version="1.1"
   id="svg1"
   sodipodi:docname="astro.svg"
   inkscape:version="1.3 (0e150ed6c4, 2023-07-21)"
   xmlns:inkscape="http://www.inkscape.org/namespaces/inkscape"
   xmlns:sodipodi="http://sodipodi.sourceforge.net/DTD/sodipodi-0.dtd"
   xmlns="http://www.w3.org/2000/svg"
   xmlns:svg="http://www.w3.org/2000/svg">
  <defs
     id="defs1" />
  <sodipodi:namedview
     id="namedview1"
     pagecolor="#505050"
     bordercolor="#eeeeee"
     borderopacity="1"
     inkscape:showpageshadow="0"
     inkscape:pageopacity="0"
     inkscape:pagecheckerboard="0"
     inkscape:deskcolor="#d1d1d1"
     inkscape:zoom="12.948893"
     inkscape:cx="21.700697"
     inkscape:cy="22.009603"
     inkscape:window-width="1229"
     inkscape:window-height="1068"
     inkscape:window-x="0"
     inkscape:window-y="0"
     inkscape:window-maximized="1"
     inkscape:current-layer="svg1" />
  <title
     id="title1">Astro</title>
  <path
     d="m 9.0362512,19.804642 c -0.9755173,-0.880104 -1.2601117,-2.7275 -0.8537833,-4.066575 0.7040833,0.843913 1.6804231,1.112057 2.6913101,1.262578 1.560334,0.232777 3.092702,0.145588 4.541995,-0.557672 0.16615,-0.08062 0.31914,-0.188359 0.500098,-0.29611 0.136538,0.389056 0.171907,0.781401 0.124201,1.181971 -0.115154,0.974694 -0.607026,1.727307 -1.388426,2.298142 -0.312561,0.227839 -0.643218,0.431827 -0.966471,0.647329 -0.991144,0.661311 -1.259287,1.436955 -0.886683,2.565462 l 0.03618,0.121734 c -0.474273,-0.203519 -0.877171,-0.543706 -1.157295,-0.977162 -0.291439,-0.443397 -0.446965,-0.962288 -0.447455,-1.492888 -0.0034,-0.263209 -0.0034,-0.528062 -0.03948,-0.787982 -0.08719,-0.632521 -0.511132,-0.431034 -0.954956,-0.931922 -0.5815264,-0.01645 -1.0421417,0.338058 -1.1638757,0.896555 -0.00987,0.0436 -0.023031,0.08554 -0.037015,0.135717 0.072572,-0.270671 -0.00891,-0.0045 0.00165,8.23e-4 z M 4.1331664,13.96624 c 0,0 2.6649882,-1.295481 5.3382017,-1.295481 L 11.487383,6.4483403 c 0.07567,-0.301045 0.296111,-0.5050317 0.544513,-0.5050317 0.248404,0 0.468841,0.2039867 0.544513,0.5050317 l 2.015193,6.2224187 c 3.166729,0 5.339024,1.295481 5.339024,1.295481 L 15.394388,1.636556 C 15.264427,1.272999 15.044813,1.0385788 14.748704,1.0385788 H 9.3150878 c -0.2961097,0 -0.5058542,0.2344202 -0.6448612,0.5979772 z"
     id="path1-6"
     style="fill:none;stroke:#000000;stroke-width:2.25;stroke-linecap:round;stroke-linejoin:round;stroke-dasharray:none;stroke-opacity:1"
     sodipodi:nodetypes="ccccccccccccccccccccsccccssccc" />
</svg>
