<?xml version="1.0" encoding="UTF-8" standalone="no"?>
<svg
   width="34"
   height="34"
   version="1.1"
   id="svg1"
   sodipodi:docname="brandfetch.svg"
   inkscape:version="1.3 (0e150ed6c4, 2023-07-21)"
   xmlns:inkscape="http://www.inkscape.org/namespaces/inkscape"
   xmlns:sodipodi="http://sodipodi.sourceforge.net/DTD/sodipodi-0.dtd"
   xmlns="http://www.w3.org/2000/svg"
   xmlns:svg="http://www.w3.org/2000/svg">
  <defs
     id="defs1" />
  <sodipodi:namedview
     id="namedview1"
     pagecolor="#505050"
     bordercolor="#eeeeee"
     borderopacity="1"
     inkscape:showpageshadow="0"
     inkscape:pageopacity="0"
     inkscape:pagecheckerboard="0"
     inkscape:deskcolor="#d1d1d1"
     inkscape:zoom="17.235294"
     inkscape:cx="17"
     inkscape:cy="17"
     inkscape:window-width="735"
     inkscape:window-height="1238"
     inkscape:window-x="0"
     inkscape:window-y="0"
     inkscape:window-maximized="1"
     inkscape:current-layer="svg1" />
  <path
     d="m 29.492218,10.186062 c 0,1.589918 -0.681394,3.066271 -1.81705,4.315493 -1.135656,1.135656 -2.83914,2.044181 -5.110453,2.498444 1.135656,0.340696 2.157747,0.908524 2.725575,1.703484 0.681394,0.681393 0.908525,1.589918 0.908525,2.498443 0,1.589919 -0.454263,2.839141 -1.476353,3.974797 -0.908525,1.135656 -2.271312,2.044181 -4.201928,2.725575 a 21.918164,21.918164 0 0 1 -9.085249,0.794959 c 0,0.567828 -0.227132,0.908525 -0.681394,1.135656 a 3.4069685,3.4069685 0 0 1 -1.703484,0.454263 c -0.681394,0 -1.1356565,-0.113566 -1.4763533,-0.454263 C 7.3469224,29.492216 7.2333568,29.037954 7.2333568,28.470126 A 82.335073,82.335073 0 0 1 10.186063,11.208152 c 0.227131,-0.454262 0.454262,-0.794959 0.908525,-1.02209 l 1.589918,-0.2271315 c 1.135657,0 1.81705,0.3406965 1.81705,1.0220905 l -0.227131,0.908525 A 72.795561,72.795561 0 0 0 11.662416,25.51742 h 2.271312 c 2.725575,0 4.769756,-0.340697 6.018978,-1.135656 1.249222,-0.79496 1.930615,-1.81705 1.930615,-2.952706 0,-0.908525 -0.340696,-1.589919 -1.135656,-2.271313 -0.681393,-0.567828 -1.930615,-0.794959 -3.634099,-0.908525 -0.340697,0 -0.681394,-0.113565 -0.79496,-0.340697 -0.227131,-0.113565 -0.227131,-0.454262 -0.227131,-0.794959 0,-0.567828 0,-1.02209 0.340697,-1.362787 0.227131,-0.340697 0.681394,-0.567828 1.249222,-0.567828 1.362787,0 2.612009,-0.227132 3.747665,-0.567828 1.135656,-0.454263 2.044181,-0.908525 2.725575,-1.589919 a 3.4069685,3.4069685 0 0 0 0.908525,-2.271312 c 0,-1.1356563 -0.567828,-2.0441813 -1.589919,-2.725575 C 22.337584,7.3469213 20.6341,7.0062245 18.249222,7.0062245 A 22.599558,22.599558 0 0 0 7.2333568,9.8453649 3.4069685,3.4069685 0 0 1 5.6434382,10.413193 1.0220906,1.0220906 0 0 1 4.8484789,10.072496 C 4.6213476,9.8453649 4.507782,9.5046681 4.507782,9.1639712 4.507782,8.5961431 4.6213476,8.2554463 4.8484789,7.9147494 5.0756101,7.5740526 5.5298726,7.1197901 6.3248319,6.7790932 8.0283161,5.6434371 9.958932,4.9620434 12.116678,4.5077809 c 2.271313,-0.5678281 4.542625,-0.7949593 6.813937,-0.7949593 3.520535,0 6.132544,0.5678281 7.949594,1.8170498 1.703484,1.1356562 2.612009,2.7255749 2.612009,4.5426246 z"
     fill="currentColor"
     id="path1"
     style="stroke-width:1.13566" />
</svg>
