<svg xmlns="http://www.w3.org/2000/svg" width="512" height="512"><g fill="none"><path fill="#000" d="M76.647 0h358.706C477.684 0 512 34.316 512 76.647v358.706C512 477.684 477.684 512 435.353 512H76.647C34.316 512 0 477.684 0 435.353V76.647C0 34.316 34.316 0 76.647 0Z"/><path fill="#FEBF19" d="M84.455 20C49.158 20 20 47.612 20 84.427v345.146C20 464.854 47.624 494 84.455 494h79.802V370.515H330V266.97H164.257V123.544h164.976V20H84.455Z"/><path fill="#0687B3" d="M347.93 20v123.485H184V247.03h163.93v143.427H184V494h245.128c35.237 0 64.346-27.612 62.814-64.427V84.427c0-35.281-27.577-64.427-64.346-64.427h-79.667Z"/></g></svg>