<svg width="75" height="79" fill="none" xmlns="http://www.w3.org/2000/svg"><path class="prefix__prefix__st3" d="M37.498 74.04l13.816-42.501H23.701z" fill="#e24329"/><path class="prefix__prefix__st4" d="M4.348 31.539L.14 44.45a2.862 2.862 0 001.036 3.197L37.498 74.04z" fill="#fca326"/><path class="prefix__prefix__st3" d="M4.348 31.539H23.7L15.37 5.943c-.426-1.31-2.283-1.31-2.725 0z" fill="#e24329"/><path class="prefix__prefix__st4" d="M70.667 31.539L74.86 44.45a2.862 2.862 0 01-1.036 3.197L37.498 74.04z" fill="#fca326"/><path class="prefix__prefix__st3" d="M70.667 31.539H51.314l8.314-25.596c.426-1.31 2.284-1.31 2.726 0z" fill="#e24329"/><path class="prefix__prefix__st5" d="M70.667 31.539l-33.17 42.5 13.817-42.5z" fill="#fc6d26"/><path class="prefix__prefix__st5" d="M23.7 31.539l13.798 42.5-33.15-42.5z" fill="#fc6d26"/></svg>