<svg xmlns="http://www.w3.org/2000/svg" width="512" height="512" viewBox="0 0 135.467 135.467"><g style="fill:#a0d809;fill-opacity:1"><g style="font-style:normal;font-variant:normal;font-weight:400;font-stretch:normal;font-size:141.03404236px;line-height:476.69509888px;font-family:&quot;OTADESIGN Rounded&quot;;-inkscape-font-specification:&quot;OTADESIGN Rounded&quot;;letter-spacing:0;word-spacing:0;fill:#a0d809;fill-opacity:1;stroke:none;stroke-width:.28950602px;stroke-linecap:butt;stroke-linejoin:miter;stroke-opacity:1"><path d="M62.475 76.586c-7.476 0-14.596 1.246-21.36 3.738-12.103 4.272-22.07 11.926-29.902 22.961C3.737 113.965 0 125.89 0 139.061v233.878c0 17.087 6.051 31.86 18.154 44.319 12.46 12.103 27.234 18.156 44.32 18.156 17.444 0 32.216-6.053 44.319-18.156 12.46-12.46 18.69-27.232 18.69-44.319v-42.53c.134-9.212 9.622-6.795 14.417 0 8.981 15.553 28.023 28.912 50.192 28.835 22.169-.076 40.582-11.037 50.193-28.836 3.64-4.292 13.9-11.607 14.951 0v42.531c0 17.087 6.051 31.86 18.155 44.319 12.459 12.103 27.233 18.156 44.32 18.156 17.443 0 32.215-6.053 44.318-18.156 12.46-12.46 18.69-27.232 18.69-44.319V139.061c0-13.172-3.915-25.096-11.746-35.776-7.476-11.035-17.266-18.689-29.37-22.96-7.119-2.493-14.24-3.74-21.359-3.74-19.223 0-35.419 7.478-48.59 22.429l-63.402 74.199c-1.424 1.068-6.141 9.232-16.16 9.232-10.02 0-14.201-8.164-15.625-9.232l-63.936-74.2c-12.815-14.95-28.834-22.427-48.056-22.427Zm395.06 0c-14.95 0-27.766 5.34-38.445 16.02-10.324 10.323-15.485 22.96-15.485 37.912 0 14.95 5.161 27.766 15.485 38.445 10.68 10.323 23.494 15.486 38.445 15.486s27.766-5.163 38.445-15.486c10.68-10.68 16.02-23.494 16.02-38.445 0-14.952-5.34-27.59-16.02-37.913-10.679-10.679-23.494-16.02-38.445-16.02Zm.533 118.54c-14.95 0-27.766 5.341-38.445 16.02-10.68 10.68-16.018 23.495-16.018 38.446v131.89c0 14.952 5.339 27.766 16.018 38.446 10.68 10.323 23.494 15.486 38.445 15.486s27.59-5.163 37.912-15.486c10.68-10.68 16.02-23.494 16.02-38.446v-131.89c0-14.951-5.34-27.766-16.02-38.446-10.323-10.679-22.96-16.019-37.912-16.019z" aria-label="Mi" style="font-style:normal;font-variant:normal;font-weight:400;font-stretch:normal;font-family:&quot;OTADESIGN Rounded&quot;;-inkscape-font-specification:&quot;OTADESIGN Rounded&quot;;fill:#a0d809;fill-opacity:1;stroke-width:1.09609616px" transform="scale(.26458)"/></g></g></svg>