<?xml version="1.0" encoding="UTF-8" standalone="no"?>
<svg
   width="32"
   height="32"
   viewBox="0 0 24 24"
   version="1.1"
   id="svg1"
   sodipodi:docname="opencollective.svg"
   inkscape:version="1.3 (0e150ed6c4, 2023-07-21)"
   xmlns:inkscape="http://www.inkscape.org/namespaces/inkscape"
   xmlns:sodipodi="http://sodipodi.sourceforge.net/DTD/sodipodi-0.dtd"
   xmlns="http://www.w3.org/2000/svg"
   xmlns:svg="http://www.w3.org/2000/svg">
  <defs
     id="defs1" />
  <sodipodi:namedview
     id="namedview1"
     pagecolor="#505050"
     bordercolor="#eeeeee"
     borderopacity="1"
     inkscape:showpageshadow="0"
     inkscape:pageopacity="0"
     inkscape:pagecheckerboard="0"
     inkscape:deskcolor="#d1d1d1"
     inkscape:zoom="12.948893"
     inkscape:cx="11.777069"
     inkscape:cy="15.483949"
     inkscape:window-width="1737"
     inkscape:window-height="1343"
     inkscape:window-x="0"
     inkscape:window-y="0"
     inkscape:window-maximized="1"
     inkscape:current-layer="svg1" />
  <path
     fill="currentColor"
     d="M 3.7835363,3.3727131 A 1.2324695,1.2324695 0 0 1 5.0160058,2.1402436 H 10.767531 A 1.2324695,1.2324695 0 0 1 12,3.3727131 V 8.7134144 H 5.0160058 A 1.2324695,1.2324695 0 0 1 3.7835363,7.4809448 Z M 12,8.7134144 h 6.983994 a 1.2324695,1.2324695 0 0 1 1.23247,1.232469 v 4.1082316 a 1.2324695,1.2324695 0 0 1 -1.23247,1.23247 H 12 Z M 3.7835363,16.519054 A 1.2324695,1.2324695 0 0 1 5.0160058,15.286585 H 12 v 5.340701 a 1.2324695,1.2324695 0 0 1 -1.232469,1.23247 H 5.0160058 a 1.2324695,1.2324695 0 0 1 -1.2324695,-1.23247 z"
     id="path1"
     style="fill:none;stroke:#000000;stroke-width:0;stroke-dasharray:none;stroke-opacity:1" />
  <g
     id="g3"
     transform="matrix(0.69390668,0,0,0.69390668,1.9383531,2.5735165)"
     style="fill:none;stroke:#000000;stroke-width:3;stroke-linecap:round;stroke-linejoin:round;stroke-dasharray:none;stroke-opacity:1">
    <path
       fill-rule="evenodd"
       clip-rule="evenodd"
       d="M 26.009,6.02649 C 27.5796,8.28932 28.5,11.037 28.5,14 c 0,2.963 -0.9204,5.711 -2.491,7.9735 l -3.6264,-3.6264 c 0.7122,-1.2886 1.1175,-2.7707 1.1175,-4.3471 0,-1.5764 -0.4053,-3.0582 -1.1175,-4.34676 z"
       fill="#99cfff"
       id="path2"
       style="fill:none;stroke:#000000;stroke-width:3;stroke-linecap:round;stroke-linejoin:round;stroke-dasharray:none;stroke-opacity:1" />
    <path
       fill-rule="evenodd"
       clip-rule="evenodd"
       d="M 22.4735,2.49111 18.8468,6.11758 C 17.5582,5.40539 16.0764,5.00002 14.5,5.00002 c -4.9705,0 -9.0001,4.0296 -9.0001,9.00008 0,4.9705 4.0296,9.0001 9.0001,9.0001 1.5764,0 3.0582,-0.4053 4.3468,-1.1175 l 3.6267,3.6264 c -2.2628,1.5705 -5.0105,2.491 -7.9735,2.491 -7.73192,0 -14,-6.2681 -14,-14 0,-7.73191 6.26808,-13.99997793 14,-13.99997793 2.963,0 5.7107,0.92047393 7.9735,2.49098793 z"
       fill="#1f87ff"
       id="path3"
       style="fill:none;stroke:#000000;stroke-width:3;stroke-linecap:round;stroke-linejoin:round;stroke-dasharray:none;stroke-opacity:1" />
  </g>
</svg>
