<svg width="50" height="50" xmlns="http://www.w3.org/2000/svg">
    <path
        d="M24.996 38.645a9.823 9.823 0 00-6.532-5.744L5.31 29.357c-1.666 6.25 2.032 12.738 8.278 14.42l9.423 2.539a1.954 1.954 0 001.825-.44c.47.595 1.266.885 2.046.676l9.423-2.539c6.246-1.682 9.944-8.17 8.278-14.42l-13.156 3.543a9.819 9.819 0 00-6.43 5.51z"
        fill="#25465a" />
    <path
        d="M25 44.675c-1.085-5.358-5.812-9.43-11.478-9.43H1.809c0 6.468 5.244 11.775 11.713 11.775h22.956c6.47 0 11.713-5.307 11.713-11.775H36.478c-5.666 0-10.393 4.072-11.478 9.43z"
        fill="#317590" />
    <path
        d="M29.023 8.157a11.728 11.728 0 00-4.745-5.177l-2.815 4.902c-.084.146-.164.292-.24.44A11.67 11.67 0 0010.71 6.028l3.046 11.43a11.67 11.67 0 008.2 8.26l-.002.01c1.024.276 2.053.407 3.064.406 1.013.002 2.043-.13 3.068-.406l-.003-.01a11.67 11.67 0 008.2-8.26l3.047-11.43a11.667 11.667 0 00-10.308 2.129z"
        fill="#ebbdbc" />
</svg>