<?xml version="1.0" encoding="UTF-8" standalone="no"?>
<svg
   width="32"
   height="32"
   viewBox="0 0 24 24"
   version="1.1"
   id="svg1"
   sodipodi:docname="stylus.svg"
   inkscape:version="1.3 (0e150ed6c4, 2023-07-21)"
   xmlns:inkscape="http://www.inkscape.org/namespaces/inkscape"
   xmlns:sodipodi="http://sodipodi.sourceforge.net/DTD/sodipodi-0.dtd"
   xmlns="http://www.w3.org/2000/svg"
   xmlns:svg="http://www.w3.org/2000/svg">
  <defs
     id="defs1" />
  <sodipodi:namedview
     id="namedview1"
     pagecolor="#505050"
     bordercolor="#eeeeee"
     borderopacity="1"
     inkscape:showpageshadow="0"
     inkscape:pageopacity="0"
     inkscape:pagecheckerboard="0"
     inkscape:deskcolor="#d1d1d1"
     inkscape:zoom="9.15625"
     inkscape:cx="2.5119454"
     inkscape:cy="20.641638"
     inkscape:window-width="1752"
     inkscape:window-height="1050"
     inkscape:window-x="0"
     inkscape:window-y="0"
     inkscape:window-maximized="1"
     inkscape:current-layer="svg1" />
  <path
     d="m 20.895257,1.7651438 c 0.16657,0 0.302381,0.041743 0.408161,0.1249805 0.10531,0.083228 0.17748,0.1944011 0.216456,0.3332629 0.03896,0.1387646 0.04421,0.2970743 0.01677,0.474731 -0.0056,0.035748 -0.128276,0.631059 -0.274798,0.5330497 -0.03312,-0.022305 -0.05548,-0.049913 -0.06667,-0.083305 0.02204,-0.1332982 -0.02493,-0.2442248 -0.141627,-0.3331779 -0.116564,-0.088694 -0.297243,-0.133298 -0.541385,-0.133298 -0.455456,0 -0.91353,0.1694053 -1.374285,0.5081409 -0.460996,0.3389013 -0.908029,0.7860273 -1.341041,1.3409591 -0.433139,0.5554351 -0.838607,1.1941885 -1.216053,1.9158378 -0.377405,0.721148 -0.705806,1.4668978 -0.982976,2.2321857 -0.277528,0.7662493 -0.497093,1.5270299 -0.657919,2.2821739 -0.160992,0.755388 -0.241375,1.443727 -0.241375,2.065813 0,0.332928 0.09421,0.499619 0.2832,0.499619 0.133224,0 0.26366,-0.05541 0.39131,-0.166691 0.127588,-0.110925 0.27503,-0.277395 0.441594,-0.499745 0.03312,-0.02177 0.06388,-0.01916 0.09146,0.0099 0.02778,0.02814 0.03599,0.06406 0.02522,0.10814 -0.222441,0.333266 -0.483163,0.610901 -0.783088,0.832903 -0.299774,0.222346 -0.572107,0.333266 -0.816241,0.333266 -0.211079,0 -0.35809,-0.0611 -0.441319,-0.18337 -0.08317,-0.122027 -0.117486,-0.305506 -0.124987,-0.466228 -0.03086,-0.661113 0.111108,-1.174589 0.333266,-1.957329 0.222267,-0.783124 0.518804,-1.6104667 0.891208,-2.4824208 0.371987,-0.8716986 0.802275,-1.7407028 1.290977,-2.6069346 0.488607,-0.8662672 0.996746,-1.6463199 1.524326,-2.3404503 0.527332,-0.6940429 1.05786,-1.257727 1.590843,-1.6909675 0.532708,-0.433368 1.032304,-0.651045 1.498973,-0.651045 z M 3.1047254,22.234856 c -0.1666334,0 -0.302546,-0.04171 -0.4082454,-0.124871 -0.1053697,-0.08315 -0.177566,-0.19442 -0.2165354,-0.333279 -0.038731,-0.13893 -0.044259,-0.297072 -0.016641,-0.47471 0.027946,-0.177835 0.09165,-0.355416 0.1915493,-0.53306 0.022381,-0.02237 0.049995,-0.02237 0.08332,0 0.033234,0.02194 0.055528,0.04994 0.066583,0.08327 -0.022049,0.133304 0.024989,0.244226 0.1416364,0.333181 0.1165618,0.08867 0.2971596,0.133138 0.5413842,0.133138 0.4554574,0 0.9136106,-0.169403 1.3742872,-0.50814 0.4609245,-0.338551 0.908051,-0.785602 1.3411235,-1.340691 0.4330733,-0.555441 0.8385416,-1.194019 1.2160717,-1.915831 0.3773291,-0.72117 0.7056385,-1.466945 0.9826978,-2.232257 0.2777177,-0.766263 0.4971977,-1.526952 0.6581057,-2.282182 0.160987,-0.755316 0.241363,-1.443716 0.241363,-2.065637 0,-0.333262 -0.09426,-0.499727 -0.283188,-0.499727 -0.133301,0 -0.263749,0.05529 -0.391332,0.166474 -0.1275787,0.110848 -0.2750305,0.277728 -0.4415778,0.499902 -0.033237,0.02188 -0.063693,0.01922 -0.091486,-0.0085 -0.027622,-0.02795 -0.035938,-0.06406 -0.025086,-0.108499 0.2223408,-0.332929 0.4830599,-0.610817 0.7829949,-0.832906 0.299767,-0.2220062 0.572016,-0.3329259 0.816239,-0.3329259 0.211069,0 0.3580885,0.060752 0.4413165,0.1830529 0.08331,0.122286 0.125059,0.277716 0.125059,0.466649 0,0.521941 -0.110912,1.174246 -0.3332595,1.957324 -0.222004,0.78301 -0.518914,1.610183 -0.891224,2.482128 -0.371974,0.871719 -0.8023524,1.740716 -1.2909694,2.606934 -0.4887002,0.866241 -0.9967573,1.646298 -1.5243393,2.340414 -0.5273284,0.694046 -1.0578549,1.257816 -1.5909066,1.690802 -0.5327987,0.433255 -1.0325233,0.649874 -1.498924,0.649874 z"
     id="path2-6"
     style="fill:none;fill-opacity:1;stroke:#000000;stroke-width:2.12774967;stroke-dasharray:none;stroke-opacity:1;stroke-linejoin:round;stroke-linecap:round"
     sodipodi:nodetypes="cccccccscccccsscccccscasccccccccccccccscccccsscccccscscccccc" />
</svg>
