<?xml version="1.0" encoding="UTF-8" standalone="no"?>
<svg
   width="32"
   height="32"
   viewBox="0 0 24 24"
   version="1.1"
   id="svg1"
   sodipodi:docname="weblate.svg"
   inkscape:version="1.3 (0e150ed6c4, 2023-07-21)"
   xmlns:inkscape="http://www.inkscape.org/namespaces/inkscape"
   xmlns:sodipodi="http://sodipodi.sourceforge.net/DTD/sodipodi-0.dtd"
   xmlns="http://www.w3.org/2000/svg"
   xmlns:svg="http://www.w3.org/2000/svg">
  <defs
     id="defs1" />
  <sodipodi:namedview
     id="namedview1"
     pagecolor="#505050"
     bordercolor="#eeeeee"
     borderopacity="1"
     inkscape:showpageshadow="0"
     inkscape:pageopacity="0"
     inkscape:pagecheckerboard="0"
     inkscape:deskcolor="#d1d1d1"
     inkscape:zoom="9.15625"
     inkscape:cx="18.1843"
     inkscape:cy="15.180887"
     inkscape:window-width="1252"
     inkscape:window-height="746"
     inkscape:window-x="0"
     inkscape:window-y="0"
     inkscape:window-maximized="1"
     inkscape:current-layer="svg1" />
  <g
     transform="matrix(0.10248972,0,0,0.10248972,-3.3119083,-3.3471207)"
     stroke-width="16.384"
     stroke-linejoin="round"
     stroke-linecap="round"
     stroke="currentColor"
     fill="none"
     id="g1"
     style="stroke-width:19.9102;stroke-dasharray:none">
    <path
       d="m 128.534,76.58 c -16.734,10.62 -25.078,31.37 -25.257,51.718 -0.124,23.454 5.944,46.926 17.743,65.195 8.353,13.03 19.973,24.23 34.234,30.45 a 61.955,61.955 0 0 0 50.398,-0.624 c 17.822,-8.274 31.441,-24.365 39.83,-42.705 14.333,-31.396 14.663,-68.933 1.071,-100.803 -10.227,4.087 -19.33,-2.419 -19.33,-2.419 0,0 0.026,10.014 -9.666,15.038 9.951,23.311 9.71,51.022 -0.268,73.744 -4.801,10.933 -12.12,21.107 -22.293,26.863 -8.184,4.641 -18.207,5.578 -27.238,1.643 -11.977,-5.221 -20.464,-16.636 -25.792,-29.041 -4.16,-9.523 -6.98,-21.839 -7.158,-34.61 -0.33,-15.386 6.497,-28.496 14.592,-28.72 5.55,-0.213 12.735,8.194 14.261,21.732 1.41,13.77 -1.58,33.2 -10.477,48.996 6.042,9.684 15.796,17.671 26.336,17.618 12.37,-20.866 16.306,-43.83 16.002,-62.357 -0.178,-20.348 -8.523,-41.08 -25.256,-51.718 -12.825,-8.094 -28.318,-8.46 -41.732,0 z m -56.975,0.812 c 0,0 -9.085,6.515 -19.304,2.41 -13.6,31.888 -13.28,69.416 1.071,100.812 8.39,18.35 22,34.431 39.822,42.705 a 62.026,62.026 0 0 0 49.29,1.106 81.392,81.392 0 0 1 -15.617,-12.985 99.777,99.777 0 0 1 -11.308,-14.53 c -6.854,-0.713 -13.369,-4.301 -17.876,-8.147 -12.914,-10.826 -21.892,-31.04 -23.49,-52.656 -1.07,-14.591 1.25,-29.933 7.096,-43.677 -9.701,-5.024 -9.684,-15.038 -9.684,-15.038 z"
       stroke-width="11.459"
       id="path1"
       style="stroke-width:19.9102;stroke-dasharray:none" />
  </g>
</svg>
