<svg width="1024" height="1024" viewBox="0 0 1024 1024" fill="none" xmlns="http://www.w3.org/2000/svg">
<rect width="1024" height="1024" fill="#F8F3EC"/>
<path d="M524.5 462.025H199.5C178.789 462.025 162 478.812 162 499.522V824.499C162 845.208 178.789 861.996 199.5 861.996H524.5C545.211 861.996 562 845.208 562 824.499V499.522C562 478.812 545.211 462.025 524.5 462.025ZM262 762.003C234.387 762.003 212 739.618 212 712.007C212 684.395 234.387 662.01 262 662.01C289.613 662.01 312 684.395 312 712.007C312 739.618 289.613 762.003 262 762.003ZM387 762.003C359.387 762.003 337 739.618 337 712.007C337 684.395 359.387 662.01 387 662.01C414.614 662.01 437 684.395 437 712.007C437 739.618 414.614 762.003 387 762.003Z" fill="url(#paint0_linear_1_125)"/>
<path d="M524.5 462.028H199.5C178.789 462.028 162 478.816 162 499.526V824.503C162 845.212 178.789 862 199.5 862H524.5C545.211 862 562 845.212 562 824.503V499.526C562 478.816 545.211 462.028 524.5 462.028ZM262 762.007C234.387 762.007 212 739.622 212 712.011C212 684.399 234.387 662.014 262 662.014C289.613 662.014 312 684.399 312 712.011C312 739.622 289.613 762.007 262 762.007ZM387 762.007C359.387 762.007 337 739.622 337 712.011C337 684.399 359.387 662.014 387 662.014C414.614 662.014 437 684.399 437 712.011C437 739.622 414.614 762.007 387 762.007Z" fill="url(#paint1_linear_1_125)"/>
<path d="M524.367 411.903H352.516C331.82 411.903 315.039 395.127 315.039 374.429V202.59C315.039 169.205 355.406 152.488 379.012 176.092L550.864 347.931C574.473 371.539 557.75 411.899 524.364 411.899L524.367 411.903Z" fill="url(#paint2_linear_1_125)"/>
<path d="M823.977 712.007H649.949C628.992 712.007 612 695.016 612 674.06V500.045C612 466.239 652.875 449.307 676.781 473.211L850.809 647.226C874.715 671.131 857.785 712.003 823.973 712.003L823.977 712.007Z" fill="url(#paint3_linear_1_125)"/>
<path d="M823.977 411.985H649.949C628.992 411.985 612 394.994 612 374.039V200.024C612 166.217 652.875 149.285 676.781 173.19L850.809 347.205C874.715 371.109 857.785 411.981 823.973 411.981L823.977 411.985Z" fill="url(#paint4_linear_1_125)"/>
<defs>
<linearGradient id="paint0_linear_1_125" x1="172.316" y1="851.684" x2="744.963" y2="278.993" gradientUnits="userSpaceOnUse">
<stop stop-color="#EC476D"/>
<stop offset="1" stop-color="#F6AE4A"/>
</linearGradient>
<linearGradient id="paint1_linear_1_125" x1="362" y1="860.395" x2="362" y2="708.327" gradientUnits="userSpaceOnUse">
<stop stop-color="#DB44DB" stop-opacity="0.3"/>
<stop offset="0.11" stop-color="#DB44DB" stop-opacity="0.21"/>
<stop offset="0.27" stop-color="#DB44DB" stop-opacity="0.12"/>
<stop offset="0.44" stop-color="#DB44DB" stop-opacity="0.05"/>
<stop offset="0.65" stop-color="#DB44DB" stop-opacity="0.01"/>
<stop offset="1" stop-color="#DB44DB" stop-opacity="0"/>
</linearGradient>
<linearGradient id="paint2_linear_1_125" x1="24.7929" y1="702.129" x2="611.466" y2="115.417" gradientUnits="userSpaceOnUse">
<stop stop-color="#EC476D"/>
<stop offset="1" stop-color="#F6AE4A"/>
</linearGradient>
<linearGradient id="paint3_linear_1_125" x1="323.055" y1="1000.93" x2="910.126" y2="413.822" gradientUnits="userSpaceOnUse">
<stop stop-color="#EC476D"/>
<stop offset="1" stop-color="#F6AE4A"/>
</linearGradient>
<linearGradient id="paint4_linear_1_125" x1="173.035" y1="850.919" x2="760.103" y2="263.809" gradientUnits="userSpaceOnUse">
<stop stop-color="#EC476D"/>
<stop offset="1" stop-color="#F6AE4A"/>
</linearGradient>
</defs>
</svg>
