<svg xmlns="http://www.w3.org/2000/svg" xmlns:osb="http://www.openswatchbook.org/uri/2009/osb" xmlns:xlink="http://www.w3.org/1999/xlink" width="130" height="130" viewBox="0 0 34.396 34.396"><defs><linearGradient osb:paint="solid" id="b"><stop offset="0" style="stop-color:#6d6d6d;stop-opacity:1"/></linearGradient><linearGradient osb:paint="solid" id="a"><stop offset="0" style="stop-color:#f1007e;stop-opacity:1"/></linearGradient><linearGradient xlink:href="#a" id="c" x1="3241.684" x2="3254.953" y1="-1355.433" y2="-1355.433" gradientUnits="userSpaceOnUse"/><linearGradient xlink:href="#b" id="g" x1="3225.76" x2="3239.03" y1="-1355.433" y2="-1355.433" gradientUnits="userSpaceOnUse"/><linearGradient xlink:href="#a" id="e" x1="3241.684" x2="3254.953" y1="-1355.433" y2="-1355.433" gradientUnits="userSpaceOnUse"/><linearGradient xlink:href="#a" id="f" x1="3241.684" x2="3254.953" y1="-1355.433" y2="-1355.433" gradientUnits="userSpaceOnUse"/><linearGradient xlink:href="#a" id="d" x1="3241.684" x2="3254.953" y1="-1355.433" y2="-1355.433" gradientUnits="userSpaceOnUse"/><linearGradient xlink:href="#b" id="h" x1="3225.76" x2="3239.03" y1="-1355.433" y2="-1355.433" gradientTransform="translate(-11935.582 4544.663) scale(3.70008)" gradientUnits="userSpaceOnUse"/></defs><g style="opacity:1"><g style="fill:url(#c);fill-opacity:1" transform="translate(-3155.048 1344.14) scale(.97898)"><g style="fill:url(#d);fill-opacity:1" transform="translate(2615.921 -1125.311) scale(.25537)"><path d="m2450.431-937.137 51.962 30v12l-51.962 30v-12l41.57-24-41.57-24z" style="fill:url(#e);fill-opacity:1;fill-rule:evenodd;stroke:none;stroke-width:.26458332px;stroke-linecap:butt;stroke-linejoin:miter;stroke-opacity:1"/><path d="m2450.431-913.137 20.785 12-20.785 12z" style="fill:url(#f);fill-opacity:1;fill-rule:evenodd;stroke:none;stroke-width:.26458332px;stroke-linecap:butt;stroke-linejoin:miter;stroke-opacity:1"/></g></g><g style="fill:url(#g);fill-opacity:1" transform="translate(-3155.048 1344.14) scale(.97898)"><path d="M49.098-504.566 0-476.221v11.338l39.277-22.676v45.354l9.82 5.67zm-19.639 34.015-19.64 11.338 19.64 11.338z" style="fill:url(#h);fill-opacity:1;fill-rule:evenodd;stroke:none;stroke-width:.25000042px;stroke-linecap:butt;stroke-linejoin:miter;stroke-opacity:1" transform="translate(3225.76 -1228.26) scale(.27026)"/></g></g></svg>