<svg xmlns="http://www.w3.org/2000/svg" xmlns:xlink="http://www.w3.org/1999/xlink" width="48" height="48" fill="none" viewBox="0 0 256 256"><defs><linearGradient xlink:href="#a" id="e" x1="-67.242" x2="237.445" y1="188.115" y2="188.115" gradientTransform="translate(48.26 35.263)" gradientUnits="userSpaceOnUse"/><linearGradient xlink:href="#a" id="g" x1="-67.242" x2="237.445" y1="188.115" y2="188.115" gradientTransform="translate(48.26 35.263)" gradientUnits="userSpaceOnUse"/><linearGradient xlink:href="#a" id="i" x1="-67.242" x2="237.445" y1="188.115" y2="188.115" gradientTransform="translate(48.26 35.263)" gradientUnits="userSpaceOnUse"/><linearGradient xlink:href="#a" id="k" x1="-67.242" x2="237.445" y1="188.115" y2="188.115" gradientTransform="translate(48.26 35.263)" gradientUnits="userSpaceOnUse"/></defs><svg width="256" height="256" viewBox="0 0 256 256"><defs><linearGradient id="b" x1="47.64" x2="617.892" y1="96.449" y2="96.449" gradientTransform="translate(48.26 35.263)" gradientUnits="userSpaceOnUse"><stop stop-color="#82E97A"/><stop offset="1" stop-color="#21DEBB"/></linearGradient><linearGradient id="c" x1="47.64" x2="617.892" y1="96.45" y2="96.45" gradientTransform="translate(48.26 35.263)" gradientUnits="userSpaceOnUse"><stop stop-color="#82E97A"/><stop offset="1" stop-color="#21DEBB"/></linearGradient><linearGradient id="d" x1="-67.243" x2="237.445" y1="188.115" y2="188.115" gradientTransform="translate(48.26 35.263)" gradientUnits="userSpaceOnUse"><stop stop-color="#82E97A"/><stop offset="1" stop-color="#21DEBB"/></linearGradient><linearGradient id="a" x1="-67.242" x2="237.445" y1="188.115" y2="188.115" gradientUnits="userSpaceOnUse"><stop stop-color="#82E97A"/><stop offset="1" stop-color="#21DEBB"/></linearGradient><linearGradient id="f" x1="-67.242" x2="237.445" y1="188.115" y2="188.115" gradientUnits="userSpaceOnUse"><stop stop-color="#82E97A"/><stop offset="1" stop-color="#21DEBB"/></linearGradient><linearGradient id="h" x1="-67.242" x2="237.445" y1="188.115" y2="188.115" gradientUnits="userSpaceOnUse"><stop stop-color="#82E97A"/><stop offset="1" stop-color="#21DEBB"/></linearGradient><linearGradient id="j" x1="-67.242" x2="237.445" y1="188.115" y2="188.115" gradientUnits="userSpaceOnUse"><stop stop-color="#82E97A"/><stop offset="1" stop-color="#21DEBB"/></linearGradient><linearGradient id="l" x1="-67.243" x2="237.445" y1="188.115" y2="188.115" gradientTransform="translate(48.26 35.263)" gradientUnits="userSpaceOnUse"><stop stop-color="#82E97A"/><stop offset="1" stop-color="#21DEBB"/></linearGradient></defs><path fill="url(#b)" d="M163.763 71.34c-2.253-4.56-7.106-7.077-12.13-7.077-4.853 0-9.706 2.516-11.785 7.076l-42.805 86.482c-2.946 5.818 0 12.893 6.586 15.41 1.733.785 3.466 1.1 5.199 1.1 5.025 0 9.704-2.516 11.957-6.919l5.892-11.95h50.256l5.892 11.95c2.08 4.403 6.932 6.92 11.784 6.92 1.733 0 3.64-.316 5.373-1.102 6.412-2.516 9.358-9.59 6.412-15.409zm2.946 63.367h-29.807l14.73-30.347z" style="fill:url(#b)" transform="translate(-48.483 -35.52)"/><path fill="url(#c)" d="M243.306 79.673c0 6.29-5.545 11.321-12.477 11.321s-12.65-5.031-12.65-11.321c0-6.132 5.718-11.164 12.65-11.164s12.477 5.032 12.477 11.164zm-12.477 94.658c-7.625 0-13.69-5.66-13.69-12.422v-53.776c0-6.76 6.065-12.421 13.69-12.421 7.451 0 13.517 5.66 13.517 12.421v53.776c0 6.761-6.066 12.422-13.517 12.422z" style="fill:url(#c)" transform="translate(-48.483 -35.52)"/><path fill="url(#d)" d="M84.222 248.36c-4.63 0-10.185-1.653-13.889-4.132-3.148-2.113-4.074-6.337-1.852-9.459a6.897 6.897 0 0 1 9.537-1.837c4.26 2.847 12.315 2.204 12.963-4.04.278-2.113-.74-4.317-2.407-5.51-2.037-1.47-4.907-1.562-7.13-2.572-2.685-1.01-5.185-2.663-7.222-4.683-3.796-3.49-5.926-7.99-6.111-12.49 0-2.57.463-5.05 1.389-7.53.926-2.204 2.315-4.224 3.981-6.06 1.76-1.746 3.704-3.123 5.834-4.133 2.407-1.102 4.815-1.745 7.315-1.929 3.426-.092 8.518.643 12.222 2.847 3.333 2.02 4.352 6.153 2.5 9.46-2.037 3.213-6.204 4.223-9.445 2.295-2.314-1.286-5.648-1.286-7.777.367-1.204.918-2.038 2.48-2.038 3.95-.185 5.417 6.76 5.51 10.371 6.978 2.778 1.194 5.37 2.94 7.407 5.235 3.149 3.49 5 7.897 5.093 12.673.185 5.418-1.852 10.468-5.74 14.325-3.612 3.674-8.612 5.878-13.797 6.153-.37 0-.834.092-1.204.092z" style="fill:url(#d)" transform="translate(-48.483 -35.52)"/><path fill="url(#a)" d="M132.741 248.268c-3.148 0-6.204-.55-8.981-1.744-2.778-1.194-5.278-2.847-7.408-4.959-2.13-2.113-3.796-4.592-5-7.255-1.111-2.847-1.76-5.878-1.76-9 0-3.03.649-6.06 1.76-9 1.204-2.663 2.87-5.05 5-7.254 2.13-2.112 4.63-3.674 7.408-4.867 2.777-1.286 5.833-1.837 8.981-1.837 2.593 0 5.093.46 7.593 1.286 2.407.734 4.537 1.928 6.481 3.49 3.148 2.387 3.796 6.887 1.39 10.101-1.482 1.836-3.612 2.847-5.834 2.847-1.482 0-3.056-.55-4.445-1.562-1.481-1.193-3.24-1.744-5.185-1.744-4.815 0-8.611 3.857-8.611 8.54 0 4.775 3.796 8.541 8.611 8.541 1.945 0 3.704-.55 5.185-1.745 3.241-2.388 7.778-1.837 10.186 1.377 2.5 3.123 1.851 7.714-1.297 10.102-3.981 3.122-8.981 4.683-14.074 4.683z" style="fill:url(#e)" transform="translate(-48.483 -35.52)"/><path fill="url(#f)" d="M175.056 202.444c-.278-.092-.648-.092-1.019-.092a20.57 20.57 0 0 0-9.074 2.112c-1.11-1.286-2.87-2.02-4.722-2.02-3.519 0-6.389 2.847-6.389 6.336v32.234a7.221 7.221 0 0 0 7.222 7.254c4.074 0 7.315-3.214 7.315-7.254v-18.55c0-3.123 2.593-5.603 5.648-5.603h.65c3.888 0 7.128-3.03 7.314-6.887.185-4.04-2.963-7.347-6.945-7.53z" style="fill:url(#g)" transform="translate(-48.483 -35.52)"/><path fill="url(#h)" d="M201.538 192.985c0 3.673-2.963 6.612-6.667 6.612-3.704 0-6.759-2.939-6.759-6.612 0-3.582 3.055-6.52 6.76-6.52 3.703 0 6.666 2.938 6.666 6.52zm-6.667 55.283c-4.074 0-7.315-3.306-7.315-7.255v-31.406c0-3.949 3.241-7.255 7.315-7.255 3.982 0 7.222 3.306 7.222 7.255v31.406c0 3.95-3.24 7.255-7.222 7.255z" style="fill:url(#i)" transform="translate(-48.483 -35.52)"/><path fill="url(#j)" d="M231.816 202.168c-4.074 0-7.963 1.102-11.389 2.94-1.11-1.838-3.148-2.94-5.463-2.94-3.519 0-6.389 2.755-6.389 6.337v47.018c0 3.95 3.333 7.255 7.407 7.255 3.982 0 7.315-3.306 7.315-7.255v-8.908c2.593 1.102 5.556 1.653 8.52 1.653 12.87 0 23.24-10.285 23.24-23.05s-10.37-23.05-23.24-23.05zm6.111 29.111c-1.667 1.653-3.796 2.48-6.11 2.48-2.316 0-4.446-.827-6.112-2.48-1.667-1.56-2.593-3.765-2.593-6.06 0-2.297.926-4.5 2.593-6.154 1.666-1.56 3.796-2.479 6.111-2.479s4.444.918 6.111 2.48c1.667 1.652 2.593 3.856 2.593 6.152 0 2.296-.926 4.5-2.593 6.061z" style="fill:url(#k)" transform="translate(-48.483 -35.52)"/><path fill="url(#l)" d="M278.483 233.85c-2.593 0-4.722-2.112-4.722-4.683v-14.05h5.555c3.52 0 6.39-2.847 6.39-6.337 0-3.58-2.87-6.428-6.39-6.428h-5.555v-7.439c0-3.949-3.24-7.163-7.222-7.163-4.075 0-7.315 3.214-7.315 7.163v34.254c0 5.143 2.037 9.918 5.648 13.591a19.504 19.504 0 0 0 13.611 5.51 7.221 7.221 0 0 0 7.222-7.255c0-3.948-3.24-7.163-7.222-7.163z" style="fill:url(#l)" transform="translate(-48.483 -35.52)"/></svg></svg>