<svg data-name="biome-logo" version="1.0" id="svg2" sodipodi:docname="biome.svg" inkscape:version="1.3 (0e150ed6c4, 2023-07-21)" xmlns:inkscape="http://www.inkscape.org/namespaces/inkscape" xmlns:sodipodi="http://sodipodi.sourceforge.net/DTD/sodipodi-0.dtd" xmlns="http://www.w3.org/2000/svg" xmlns:svg="http://www.w3.org/2000/svg" viewBox="34.9 34.9 315.85 363.13">
  <defs id="defs2"/>
  <sodipodi:namedview id="namedview2" pagecolor="#505050" bordercolor="#eeeeee" borderopacity="1" inkscape:showpageshadow="0" inkscape:pageopacity="0" inkscape:pagecheckerboard="0" inkscape:deskcolor="#d1d1d1" inkscape:zoom="0.15501855" inkscape:cx="516.06728" inkscape:cy="1012.782" inkscape:window-width="806" inkscape:window-height="664" inkscape:window-x="0" inkscape:window-y="0" inkscape:window-maximized="1" inkscape:current-layer="svg2"/>
  <path fill="#f7b911" d="M340.1 245.3A97.4 97.4 0 0 0 324 221l-10.3-9c-1.7-1.5-2-3-.4-4.4a79.6 79.6 0 0 0 20.6-26.7 92 92 0 0 0 7.3-27 67.9 67.9 0 0 0 0-15.3q-1.6-17.3-3.6-23-1.3-5.2-2.6-9c-11-28.3-36.3-47.3-52.7-57a138.3 138.3 0 0 0-15.5-6.3 163.3 163.3 0 0 0-28-6.4 147.2 147.2 0 0 0-21.2-2H34.9v83.5h177.6a78.4 78.4 0 0 1 17.4 2c7.6 1.6 14.1 4.8 17.7 12.2a36.6 36.6 0 0 1 2.2 11.5v8.4a19.7 19.7 0 0 1-5.6 10.6 34 34 0 0 1-21.2 7.5c-13.6 1-27.3.2-41 .4H34.9v227h83.5c2.6 0 3-1 3-3.4V259.1c0-7.3 0-7.3 7.2-7.3h89.9a57.4 57.4 0 0 1 28.6 6.2.8.8 0 0 0 .5 0l2.9 2.7a29 29 0 0 1 7.6 31.8 28.2 28.2 0 0 1-9.8 12.7 48.8 48.8 0 0 1-25.8 8.2c-11.4.2-22.8 0-34.2 0-2.9 0-3.7 1-3.7 3.6v73.8c0 7 0 7.3 7.1 7a403.9 403.9 0 0 0 45.5-1.3q23.6-3.3 40.2-8a11.9 11.9 0 0 0 .7-.3 121.6 121.6 0 0 0 34.4-17.9 65 65 0 0 0 16.2-16 5.1 5.1 0 0 0 1-1 88.2 88.2 0 0 0 16.2-32.5 176.8 176.8 0 0 0 4.2-21 94.7 94.7 0 0 0-10-54.4zM177.7 114.8Z" id="path1"/>
</svg>