<svg xmlns="http://www.w3.org/2000/svg" width="48" height="48"><style>.solid{fill:#1b1e2e}@media (prefers-color-scheme:dark){.solid{fill:#fff}}</style><path fill="#58D09E" d="M.854 30.359A24.022 24.022 0 0 1 0 24C0 14.16 6.181 5.16 15.382 1.611l1.207 3.122C8.669 7.79 3.349 15.531 3.349 24.001c0 1.858.247 3.698.733 5.471l-3.228.887Z"/><path fill="#58D09E" d="M15.222 1.688A24.022 24.022 0 0 1 21.455.174C31.243-.855 40.839 4.352 45.33 13.132l-2.979 1.526C38.485 7.1 30.23 2.619 21.805 3.505a20.688 20.688 0 0 0-5.364 1.3l-1.22-3.117Z"/><path d="M53.45 35.793a20.666 20.666 0 0 0-18.389-11.145c-2.75 0-5.422.53-7.938 1.57l-1.283-3.09a23.995 23.995 0 0 1 9.22-1.828c9.016 0 17.201 4.96 21.36 12.946l-2.97 1.547Z" style="fill:url(#linearGradient-1)" transform="rotate(85 41.13 28.547)"/><path d="M16.877 19.05c1.942 0 3.524 1.035 4.337 2.841l.064.142 3.262-1.108-.07-.167c-1.263-3.076-4.172-4.988-7.593-4.988-2.405 0-4.36.771-5.975 2.354-1.606 1.573-2.418 3.552-2.418 5.882 0 2.31.812 4.279 2.418 5.852 1.615 1.583 3.57 2.354 5.975 2.354 3.421 0 6.33-1.912 7.593-4.986l.07-.167-3.267-1.11-.062.147c-.728 1.775-2.348 2.837-4.334 2.837-1.353 0-2.495-.473-3.4-1.404-.916-.943-1.38-2.127-1.38-3.52 0-1.403.453-2.565 1.38-3.551.902-.936 2.047-1.409 3.4-1.409Z" class="solid"/><path d="m37.306 16.074-4.648 11.761-4.679-11.761h-3.828l6.562 16.053-4.668 11.322 3.346.666 11.532-28.041z" class="solid"/><path d="m26.643 41.99-.815 1.973c-.162.39-.532.655-.95.673-.274.01-.552.018-.833.018-9.597-.005-18.088-6.771-20.192-16.094l-3.267.738c1.18 5.229 4.144 9.975 8.345 13.367A24.15 24.15 0 0 0 24.009 48h.05c.32 0 .64-.008.959-.02a4.443 4.443 0 0 0 3.91-2.745l1.064-2.58-3.349-.666Z" style="fill:url(#linearGradient-3)"/><defs><linearGradient id="linearGradient-1" x1="21.967%" x2="81.691%" y1="36.369%" y2="66.621%"><stop offset="9.39%" stop-color="#58D09E"/><stop offset="98.83%" stop-color="#58D09E" stop-opacity="0"/></linearGradient><linearGradient id="linearGradient-2" x1="-2.865%" x2="115.797%" y1="42.45%" y2="63.329%"><stop offset="7.74%" stop-color="#58D09E"/><stop offset="76.17%" stop-color="#FFF"/></linearGradient><linearGradient id="linearGradient-3" x1="6.32%" x2="87.52%" y1="44.066%" y2="58.354%"><stop offset="0%" stop-color="#58D09E"/><stop offset="100%" stop-color="#1B1E2E"/></linearGradient></defs></svg>