<svg xmlns="http://www.w3.org/2000/svg" xmlns:xlink="http://www.w3.org/1999/xlink" width="167" height="162"><defs><linearGradient id="b" x1="35.059%" x2="73.095%" y1="4.393%" y2="95.607%"><stop offset="0%" stop-color="#FF0074"/><stop offset="100%" stop-color="#FF7900"/></linearGradient><path id="a" d="M161.649 22.412c6.22 0 11.263 5.058 11.263 11.299a11.33 11.33 0 0 1-1.125 4.921l-3.238 6.713a16.802 16.802 0 0 1-11.322 9.073l-47.811-.002a16.762 16.762 0 0 0-11.592 4.658 16.811 16.811 0 0 0-3.43 4.65l-.27.568a16.814 16.814 0 0 0-1.706 7.405 16.88 16.88 0 0 0 4.644 11.63l20.723 21.784c4.873 5.122 5.893 12.522 3.145 18.597-2.658 5.44-8.153 9.23-14.55 9.43l-.535.01H61.619c-1.294 0-2.566.148-3.794.435l47.813.001c4.318 0 8.47-1.668 11.592-4.658a16.811 16.811 0 0 0 3.43-4.65l.27-.568a16.814 16.814 0 0 0 1.706-7.405c0-4.331-1.663-8.496-4.644-11.63L97.269 82.89c-4.873-5.122-5.893-12.522-3.145-18.597 2.658-5.44 8.153-9.23 14.55-9.43l.535-.01h44.226c1.294 0 2.564-.148 3.792-.434l8.467-.002c9.273 0 16.79 7.541 16.79 16.844a16.89 16.89 0 0 1-1.505 6.97l-35.107 77.484a16.788 16.788 0 0 1-15.286 9.874h-77.18c-6.22 0-11.264-5.058-11.264-11.299 0-1.704.385-3.387 1.125-4.921l3.238-6.713a16.803 16.803 0 0 1 11.31-9.07H49.36c-9.273 0-16.79-7.542-16.79-16.845 0-2.405.513-4.781 1.505-6.97l35.107-77.484a16.788 16.788 0 0 1 15.286-9.874h77.18Z"/></defs><use xlink:href="#a" fill="none" fill-rule="evenodd" stroke="url(#b)" stroke-linejoin="round" stroke-width="16.844" transform="translate(-24 -13)"/></svg>