<svg version="1.1" x="0px" y="0px" style="enable-background:new 0 0 1017.4899 310.96725;" xml:space="preserve" id="svg8" sodipodi:docname="GitLab_logo.svg" inkscape:version="1.3 (0e150ed6c4, 2023-07-21)" xmlns:inkscape="http://www.inkscape.org/namespaces/inkscape" xmlns:sodipodi="http://sodipodi.sourceforge.net/DTD/sodipodi-0.dtd" xmlns="http://www.w3.org/2000/svg" xmlns:svg="http://www.w3.org/2000/svg" xmlns:sketch="http://www.bohemiancoding.com/sketch/ns" viewBox="70.47 -0.02 337.67 311"><defs id="defs8"></defs><sodipodi:namedview id="namedview8" pagecolor="#505050" bordercolor="#eeeeee" borderopacity="1" inkscape:showpageshadow="0" inkscape:pageopacity="0" inkscape:pagecheckerboard="0" inkscape:deskcolor="#d1d1d1" inkscape:zoom="0.63686134" inkscape:cx="507.95986" inkscape:cy="155.44985" inkscape:window-width="1624" inkscape:window-height="896" inkscape:window-x="0" inkscape:window-y="0" inkscape:window-maximized="1" inkscape:current-layer="g3"></sodipodi:namedview><style type="text/css" id="style1">	.st0{fill:#FAFAFA;}	.st1{fill:#F0F0F0;}	.st2{fill:#FFFFFF;}	.st3{fill:#E24329;}	.st4{fill:#FCA326;}	.st5{fill:#FC6D26;}	.st6{fill:#8C929D;}	.st7{fill:#2E2E2E;}	.st8{fill:none;stroke:#FCA326;stroke-width:16;stroke-linecap:round;stroke-linejoin:round;stroke-miterlimit:10;}	.st9{fill:none;stroke:#FC6D26;stroke-width:16;stroke-linecap:round;stroke-linejoin:round;stroke-miterlimit:10;}	.st10{fill:none;stroke:#E24329;stroke-width:16;stroke-linecap:round;stroke-linejoin:round;stroke-miterlimit:10;}	.st11{fill:none;stroke:#F0F0F0;stroke-miterlimit:10;}	.st12{fill:#231F20;}	.st13{fill:none;stroke:#231F20;stroke-width:16;stroke-linecap:round;stroke-linejoin:round;stroke-miterlimit:10;}	.st14{display:none;}	.st15{display:inline;opacity:0.1;fill:#E828E3;}	.st16{display:inline;}	.st17{opacity:0.1;fill:#E828E3;}	.st18{font-family:'SourceSansPro-Semibold';}	.st19{font-size:24px;}	.st20{display:inline;fill:#DB3B21;}	.st21{display:inline;fill:#FC6D26;}	.st22{display:inline;fill:#2E2E2E;}	.st23{display:inline;fill:#6E49CB;}	.st24{display:inline;fill:#380D75;}	.st25{display:inline;fill:#FCA121;}	.st26{opacity:0.6;fill:none;stroke:#231F20;stroke-width:2;stroke-miterlimit:10;stroke-dasharray:12,6;}	.st27{fill:none;stroke:#444444;stroke-width:1.5339;stroke-miterlimit:10;}</style><g id="logo_art" transform="translate(-66.732111,219.98596)">	<g id="g3">		<g id="g1">																							</g>		<g id="g2" transform="translate(13.248567,-343.91071)">			<path id="path50_5_" class="st3" d="m 292.778,434.892 v 0 L 354.977,243.57 H 230.669 Z"></path>			<path id="path66_12_" class="st4" d="m 143.549,243.57 v 0 l -18.941,58.126 c -1.714,5.278 0.137,11.104 4.661,14.394 l 163.509,118.801 z"></path>			<path id="path74_5_" class="st3" d="m 143.549,243.57 h 87.12 L 193.175,128.346 c -1.919,-5.895 -10.282,-5.895 -12.27,0 z"></path>			<path id="path82_12_" class="st4" d="m 442.097,243.57 v 0 l 18.873,58.126 c 1.714,5.278 -0.137,11.104 -4.661,14.394 L 292.778,434.892 Z"></path>			<path id="path86_5_" class="st3" d="m 442.097,243.57 h -87.12 l 37.425,-115.224 c 1.919,-5.895 10.282,-5.895 12.27,0 z"></path>			<polygon class="st5" points="442.097,243.57 292.778,434.892 354.977,243.57 " id="polygon1"></polygon>			<polygon class="st5" points="230.669,243.57 292.778,434.892 143.549,243.57 " id="polygon2"></polygon>		</g>	</g></g><g id="spacing_guides" class="st14" transform="translate(-123.97696, -123.92475)">	<path id="path40_32_" sketch:type="MSShapeGroup" class="st15" d="M-1,0v124h1268V0H-1L-1,0z"></path>	<path id="path40_31_" sketch:type="MSShapeGroup" class="st15" d="M-1,435v124h1268V435H-1L-1,435z"></path>	<path id="path40_30_" sketch:type="MSShapeGroup" class="st15" d="M261.69,434.551h62v-310h-62V434.551L261.69,434.551z"></path>	<path id="path40_29_" sketch:type="MSShapeGroup" class="st15" d="M462.2,560h62V-1h-62V560L462.2,560z"></path>	<text transform="matrix(1 0 0 1 256.2529 195)" class="st16 st18 st19" id="text3">H: 2.5 x</text>	<text transform="matrix(1 0 0 1 468.4727 282.832)" class="st16 st18 st19" id="text4">1/2 x</text>	<text transform="matrix(1 0 0 1 621.2881 500.4978)" class="st16 st18 st19" id="text5">1x</text>	<text transform="matrix(1 0 0 1 621.2881 65.4988)" class="st16 st18 st19" id="text6">1x</text>	<path id="path40_27_" sketch:type="MSShapeGroup" class="st15" d="M0,560h124V-1H0V560L0,560z"></path>	<text transform="matrix(1 0 0 1 51.2881 282.832)" class="st16 st18 st19" id="text7">1x</text>	<path id="path40_3_" sketch:type="MSShapeGroup" class="st15" d="M1142,560h124V-1h-124V560L1142,560z"></path>	<text transform="matrix(1 0 0 1 1191.2881 282.832)" class="st16 st18 st19" id="text8">1x</text></g></svg>