<svg version="1.1" id="svg43" sodipodi:docname="opencollective.svg" inkscape:version="1.2.2 (b0a8486541, 2022-12-01)" xmlns:inkscape="http://www.inkscape.org/namespaces/inkscape" xmlns:sodipodi="http://sodipodi.sourceforge.net/DTD/sodipodi-0.dtd" xmlns="http://www.w3.org/2000/svg" xmlns:svg="http://www.w3.org/2000/svg" viewBox="0 10 38 38">  <sodipodi:namedview id="namedview45" pagecolor="#505050" bordercolor="#eeeeee" borderopacity="1" inkscape:showpageshadow="0" inkscape:pageopacity="0" inkscape:pagecheckerboard="0" inkscape:deskcolor="#505050" showgrid="false" inkscape:zoom="2.7833698" inkscape:cx="230.11675" inkscape:cy="32.694182" inkscape:window-width="2353" inkscape:window-height="1281" inkscape:window-x="0" inkscape:window-y="0" inkscape:window-maximized="1" inkscape:current-layer="logotype"></sodipodi:namedview>  <!-- Generator: Sketch 42 (36781) - http://www.bohemiancoding.com/sketch -->  <title id="title2">Rectangle</title>  <desc id="desc4">Created with Sketch.</desc>  <defs id="defs6"></defs>  <g id="Page-1" stroke="none" stroke-width="1" fill="none" fill-rule="evenodd">    <g id="opencollective-logo">      <g id="icon" transform="translate(0.000000, 10.000000)">        <path d="M34.6194245,8.17880011 C36.7508489,11.2495266 38,14.9788859 38,19 C38,23.0211141 36.7508489,26.7504734 34.6194245,29.8211999 L29.6976779,24.8994533 C30.6641742,23.1506053 31.2142857,21.1395454 31.2142857,19 C31.2142857,16.8604546 30.6641742,14.8493947 29.6976779,13.1005467 L34.6194245,8.17880011 Z M29.8211999,3.38057552 L24.8994533,8.30232215 C23.1506053,7.33582578 21.1395454,6.78571429 19,6.78571429 C12.2542363,6.78571429 6.78571429,12.2542363 6.78571429,19 C6.78571429,25.7457637 12.2542363,31.2142857 19,31.2142857 C21.1395454,31.2142857 23.1506053,30.6641742 24.8994533,29.6976779 L29.8211999,34.6194245 C26.7504734,36.7508489 23.0211141,38 19,38 C8.50658975,38 0,29.4934102 0,19 C0,8.50658975 8.50658975,0 19,0 C23.0211141,0 26.7504734,1.24915112 29.8211999,3.38057552 Z" id="Combined-Shape-Copy-2" fill="#7FADF2"></path>        <path d="M34.6194245,8.17880011 C36.7508489,11.2495266 38,14.9788859 38,19 C38,23.0211141 36.7508489,26.7504734 34.6194245,29.8211999 L29.6976779,24.8994533 C30.6641742,23.1506053 31.2142857,21.1395454 31.2142857,19 C31.2142857,16.8604546 30.6641742,14.8493947 29.6976779,13.1005467 L34.6194245,8.17880011 Z" id="closing-o" fill="#B8D3F4"></path>      </g>      <g id="logotype" transform="translate(62.000000, 0.000000)" fill="#515F71"></g>    </g>  </g></svg>